<svg width="21" height="21" viewBox="0 0 21 21" fill="none" xmlns="http://www.w3.org/2000/svg">
<path d="M9.7 16.5C8.1 16.4167 6.75 15.8 5.65 14.65C4.55 13.5 4 12.1167 4 10.5C4 8.83333 4.58333 7.41667 5.75 6.25C6.91667 5.08333 8.33333 4.5 10 4.5C11.6167 4.5 13 5.05 14.15 6.15C15.3 7.25 15.9167 8.6 16 10.2L13.9 9.575C13.6833 8.675 13.2167 7.9375 12.5 7.3625C11.7833 6.7875 10.95 6.5 10 6.5C8.9 6.5 7.95833 6.89167 7.175 7.675C6.39167 8.45833 6 9.4 6 10.5C6 11.45 6.2875 12.2833 6.8625 13C7.4375 13.7167 8.175 14.1833 9.075 14.4L9.7 16.5ZM10.9 20.45C10.75 20.4833 10.6 20.5 10.45 20.5H10C8.61667 20.5 7.31667 20.2375 6.1 19.7125C4.88333 19.1875 3.825 18.475 2.925 17.575C2.025 16.675 1.3125 15.6167 0.7875 14.4C0.2625 13.1833 0 11.8833 0 10.5C0 9.11667 0.2625 7.81667 0.7875 6.6C1.3125 5.38333 2.025 4.325 2.925 3.425C3.825 2.525 4.88333 1.8125 6.1 1.2875C7.31667 0.7625 8.61667 0.5 10 0.5C11.3833 0.5 12.6833 0.7625 13.9 1.2875C15.1167 1.8125 16.175 2.525 17.075 3.425C17.975 4.325 18.6875 5.38333 19.2125 6.6C19.7375 7.81667 20 9.11667 20 10.5V10.95C20 11.1 19.9833 11.25 19.95 11.4L18 10.8V10.5C18 8.26667 17.225 6.375 15.675 4.825C14.125 3.275 12.2333 2.5 10 2.5C7.76667 2.5 5.875 3.275 4.325 4.825C2.775 6.375 2 8.26667 2 10.5C2 12.7333 2.775 14.625 4.325 16.175C5.875 17.725 7.76667 18.5 10 18.5H10.3L10.9 20.45ZM18.525 21L14.25 16.725L13 20.5L10 10.5L20 13.5L16.225 14.75L20.5 19.025L18.525 21Z" fill="#4A69E8"/>
</svg>
